<?xml version="1.0" encoding="UTF-8" standalone="no"?>
<!DOCTYPE svg PUBLIC "-//W3C//DTD SVG 1.1//EN"
 "http://www.w3.org/Graphics/SVG/1.1/DTD/svg11.dtd">
<!-- Generated by graphviz version 2.30.1 (20180828.1746)
 -->
<!-- Title: %3 Pages: 1 -->
<svg width="1010pt" height="332pt"
 viewBox="0.00 0.00 1010.00 332.00" xmlns="http://www.w3.org/2000/svg" xmlns:xlink="http://www.w3.org/1999/xlink">
<g id="graph0" class="graph" transform="scale(1 1) rotate(0) translate(4 328)">
<title>%3</title>
<polygon fill="white" stroke="white" points="-4,5 -4,-328 1007,-328 1007,5 -4,5"/>
<!-- [root] aws_instance.myec2 (expand) -->
<g id="node1" class="node"><title>[root] aws_instance.myec2 (expand)</title>
<polygon fill="none" stroke="black" points="400,-108 274,-108 274,-72 400,-72 400,-108"/>
<text text-anchor="middle" x="337" y="-86.3" font-family="Times,serif" font-size="14.00">aws_instance.myec2</text>
</g>
<!-- [root] provider[&quot;registry.terraform.io/hashicorp/aws&quot;] -->
<g id="node7" class="node"><title>[root] provider[&quot;registry.terraform.io/hashicorp/aws&quot;]</title>
<polygon fill="none" stroke="black" points="470,-36 219.984,-18 470,-3.55271e-15 720.016,-18 470,-36"/>
<text text-anchor="middle" x="470" y="-14.3" font-family="Times,serif" font-size="14.00">provider[&quot;registry.terraform.io/hashicorp/aws&quot;]</text>
</g>
<!-- [root] aws_instance.myec2 (expand)&#45;&gt;[root] provider[&quot;registry.terraform.io/hashicorp/aws&quot;] -->
<g id="edge1" class="edge"><title>[root] aws_instance.myec2 (expand)&#45;&gt;[root] provider[&quot;registry.terraform.io/hashicorp/aws&quot;]</title>
<path fill="none" stroke="black" d="M369.535,-71.8761C388.523,-61.8828 412.56,-49.2317 432.361,-38.81"/>
<polygon fill="black" stroke="black" points="434.194,-41.8004 441.413,-34.0456 430.934,-35.6059 434.194,-41.8004"/>
</g>
<!-- [root] var.ami&#45;id -->
<g id="node8" class="node"><title>[root] var.ami&#45;id</title>
<polygon fill="none" stroke="black" points="66,-36 0,-36 0,-0 72,-0 72,-30 66,-36"/>
<polyline fill="none" stroke="black" points="66,-36 66,-30 "/>
<polyline fill="none" stroke="black" points="72,-30 66,-30 "/>
<text text-anchor="middle" x="36" y="-14.3" font-family="Times,serif" font-size="14.00">var.ami&#45;id</text>
</g>
<!-- [root] aws_instance.myec2 (expand)&#45;&gt;[root] var.ami&#45;id -->
<g id="edge2" class="edge"><title>[root] aws_instance.myec2 (expand)&#45;&gt;[root] var.ami&#45;id</title>
<path fill="none" stroke="black" d="M273.99,-78.8029C224.102,-70.0827 152.607,-56.153 82.1207,-36.0986"/>
<polygon fill="black" stroke="black" points="82.7624,-32.6409 72.1838,-33.228 80.8196,-39.3659 82.7624,-32.6409"/>
</g>
<!-- [root] var.compute&#45;type -->
<g id="node9" class="node"><title>[root] var.compute&#45;type</title>
<polygon fill="none" stroke="black" points="195.25,-36 90.75,-36 90.75,-0 201.25,-0 201.25,-30 195.25,-36"/>
<polyline fill="none" stroke="black" points="195.25,-36 195.25,-30 "/>
<polyline fill="none" stroke="black" points="201.25,-30 195.25,-30 "/>
<text text-anchor="middle" x="146" y="-14.3" font-family="Times,serif" font-size="14.00">var.compute&#45;type</text>
</g>
<!-- [root] aws_instance.myec2 (expand)&#45;&gt;[root] var.compute&#45;type -->
<g id="edge3" class="edge"><title>[root] aws_instance.myec2 (expand)&#45;&gt;[root] var.compute&#45;type</title>
<path fill="none" stroke="black" d="M290.276,-71.8761C263.701,-62.1365 230.238,-49.8725 202.231,-39.6081"/>
<polygon fill="black" stroke="black" points="203.166,-36.2232 192.572,-36.0683 200.757,-42.7957 203.166,-36.2232"/>
</g>
<!-- [root] var.tag&#45;name -->
<g id="node10" class="node"><title>[root] var.tag&#45;name</title>
<polygon fill="none" stroke="black" points="819.25,-36 738.75,-36 738.75,-0 825.25,-0 825.25,-30 819.25,-36"/>
<polyline fill="none" stroke="black" points="819.25,-36 819.25,-30 "/>
<polyline fill="none" stroke="black" points="825.25,-30 819.25,-30 "/>
<text text-anchor="middle" x="782" y="-14.3" font-family="Times,serif" font-size="14.00">var.tag&#45;name</text>
</g>
<!-- [root] aws_instance.myec2 (expand)&#45;&gt;[root] var.tag&#45;name -->
<g id="edge4" class="edge"><title>[root] aws_instance.myec2 (expand)&#45;&gt;[root] var.tag&#45;name</title>
<path fill="none" stroke="black" d="M400.145,-80.6068C498.554,-67.5083 681.398,-43.0932 728.399,-35.4531"/>
<polygon fill="black" stroke="black" points="729.279,-38.8506 738.495,-33.6243 728.032,-31.9627 729.279,-38.8506"/>
</g>
<!-- [root] aws_security_group.web&#45;ec2&#45;security&#45;group (expand) -->
<g id="node2" class="node"><title>[root] aws_security_group.web&#45;ec2&#45;security&#45;group (expand)</title>
<polygon fill="none" stroke="black" points="730.25,-108 475.75,-108 475.75,-72 730.25,-72 730.25,-108"/>
<text text-anchor="middle" x="603" y="-86.3" font-family="Times,serif" font-size="14.00">aws_security_group.web&#45;ec2&#45;security&#45;group</text>
</g>
<!-- [root] aws_security_group.web&#45;ec2&#45;security&#45;group (expand)&#45;&gt;[root] provider[&quot;registry.terraform.io/hashicorp/aws&quot;] -->
<g id="edge5" class="edge"><title>[root] aws_security_group.web&#45;ec2&#45;security&#45;group (expand)&#45;&gt;[root] provider[&quot;registry.terraform.io/hashicorp/aws&quot;]</title>
<path fill="none" stroke="black" d="M570.465,-71.8761C551.477,-61.8828 527.44,-49.2317 507.639,-38.81"/>
<polygon fill="black" stroke="black" points="509.066,-35.6059 498.587,-34.0456 505.806,-41.8004 509.066,-35.6059"/>
</g>
<!-- [root] aws_security_group.web&#45;ec2&#45;security&#45;group (expand)&#45;&gt;[root] var.tag&#45;name -->
<g id="edge6" class="edge"><title>[root] aws_security_group.web&#45;ec2&#45;security&#45;group (expand)&#45;&gt;[root] var.tag&#45;name</title>
<path fill="none" stroke="black" d="M646.788,-71.8761C671.677,-62.143 703.013,-49.8888 729.25,-39.6286"/>
<polygon fill="black" stroke="black" points="730.625,-42.8489 738.664,-35.9471 728.076,-36.3296 730.625,-42.8489"/>
</g>
<!-- [root] output.aZone -->
<g id="node3" class="node"><title>[root] output.aZone</title>
<polygon fill="none" stroke="black" points="488.25,-180 405.75,-180 405.75,-144 494.25,-144 494.25,-174 488.25,-180"/>
<polyline fill="none" stroke="black" points="488.25,-180 488.25,-174 "/>
<polyline fill="none" stroke="black" points="494.25,-174 488.25,-174 "/>
<text text-anchor="middle" x="450" y="-158.3" font-family="Times,serif" font-size="14.00">output.aZone</text>
</g>
<!-- [root] output.aZone&#45;&gt;[root] aws_instance.myec2 (expand) -->
<g id="edge12" class="edge"><title>[root] output.aZone&#45;&gt;[root] aws_instance.myec2 (expand)</title>
<path fill="none" stroke="black" d="M422.357,-143.876C407.582,-134.724 389.209,-123.342 373.297,-113.485"/>
<polygon fill="black" stroke="black" points="375.093,-110.481 364.749,-108.19 371.407,-116.431 375.093,-110.481"/>
</g>
<!-- [root] output.fqdn&#45;ec2 -->
<g id="node4" class="node"><title>[root] output.fqdn&#45;ec2</title>
<polygon fill="none" stroke="black" points="141.25,-180 44.75,-180 44.75,-144 147.25,-144 147.25,-174 141.25,-180"/>
<polyline fill="none" stroke="black" points="141.25,-180 141.25,-174 "/>
<polyline fill="none" stroke="black" points="147.25,-174 141.25,-174 "/>
<text text-anchor="middle" x="96" y="-158.3" font-family="Times,serif" font-size="14.00">output.fqdn&#45;ec2</text>
</g>
<!-- [root] output.fqdn&#45;ec2&#45;&gt;[root] aws_instance.myec2 (expand) -->
<g id="edge13" class="edge"><title>[root] output.fqdn&#45;ec2&#45;&gt;[root] aws_instance.myec2 (expand)</title>
<path fill="none" stroke="black" d="M147.405,-146.069C182.556,-135.859 229.556,-122.208 267.965,-111.052"/>
<polygon fill="black" stroke="black" points="269.415,-114.275 278.042,-108.125 267.462,-107.553 269.415,-114.275"/>
</g>
<!-- [root] output.privateIP -->
<g id="node5" class="node"><title>[root] output.privateIP</title>
<polygon fill="none" stroke="black" points="262.25,-180 165.75,-180 165.75,-144 268.25,-144 268.25,-174 262.25,-180"/>
<polyline fill="none" stroke="black" points="262.25,-180 262.25,-174 "/>
<polyline fill="none" stroke="black" points="268.25,-174 262.25,-174 "/>
<text text-anchor="middle" x="217" y="-158.3" font-family="Times,serif" font-size="14.00">output.privateIP</text>
</g>
<!-- [root] output.privateIP&#45;&gt;[root] aws_instance.myec2 (expand) -->
<g id="edge14" class="edge"><title>[root] output.privateIP&#45;&gt;[root] aws_instance.myec2 (expand)</title>
<path fill="none" stroke="black" d="M246.355,-143.876C262.045,-134.724 281.557,-123.342 298.454,-113.485"/>
<polygon fill="black" stroke="black" points="300.658,-116.252 307.532,-108.19 297.13,-110.205 300.658,-116.252"/>
</g>
<!-- [root] output.publicIP -->
<g id="node6" class="node"><title>[root] output.publicIP</title>
<polygon fill="none" stroke="black" points="381.25,-180 286.75,-180 286.75,-144 387.25,-144 387.25,-174 381.25,-180"/>
<polyline fill="none" stroke="black" points="381.25,-180 381.25,-174 "/>
<polyline fill="none" stroke="black" points="387.25,-174 381.25,-174 "/>
<text text-anchor="middle" x="337" y="-158.3" font-family="Times,serif" font-size="14.00">output.publicIP</text>
</g>
<!-- [root] output.publicIP&#45;&gt;[root] aws_instance.myec2 (expand) -->
<g id="edge15" class="edge"><title>[root] output.publicIP&#45;&gt;[root] aws_instance.myec2 (expand)</title>
<path fill="none" stroke="black" d="M337,-143.697C337,-135.983 337,-126.712 337,-118.112"/>
<polygon fill="black" stroke="black" points="340.5,-118.104 337,-108.104 333.5,-118.104 340.5,-118.104"/>
</g>
<!-- [root] meta.count&#45;boundary (EachMode fixup) -->
<g id="node11" class="node"><title>[root] meta.count&#45;boundary (EachMode fixup)</title>
<ellipse fill="none" stroke="black" cx="393" cy="-234" rx="176.202" ry="18"/>
<text text-anchor="middle" x="393" y="-230.3" font-family="Times,serif" font-size="14.00">[root] meta.count&#45;boundary (EachMode fixup)</text>
</g>
<!-- [root] meta.count&#45;boundary (EachMode fixup)&#45;&gt;[root] aws_security_group.web&#45;ec2&#45;security&#45;group (expand) -->
<g id="edge7" class="edge"><title>[root] meta.count&#45;boundary (EachMode fixup)&#45;&gt;[root] aws_security_group.web&#45;ec2&#45;security&#45;group (expand)</title>
<path fill="none" stroke="black" d="M434.549,-216.477C455.843,-207.157 481.702,-194.484 503,-180 522.506,-166.735 524.428,-159.737 542,-144 552.826,-134.304 564.879,-123.776 575.394,-114.678"/>
<polygon fill="black" stroke="black" points="577.805,-117.22 583.088,-108.036 573.231,-111.921 577.805,-117.22"/>
</g>
<!-- [root] meta.count&#45;boundary (EachMode fixup)&#45;&gt;[root] output.aZone -->
<g id="edge8" class="edge"><title>[root] meta.count&#45;boundary (EachMode fixup)&#45;&gt;[root] output.aZone</title>
<path fill="none" stroke="black" d="M406.798,-216.055C413.628,-207.668 422.008,-197.376 429.564,-188.096"/>
<polygon fill="black" stroke="black" points="432.333,-190.24 435.933,-180.275 426.905,-185.82 432.333,-190.24"/>
</g>
<!-- [root] meta.count&#45;boundary (EachMode fixup)&#45;&gt;[root] output.fqdn&#45;ec2 -->
<g id="edge9" class="edge"><title>[root] meta.count&#45;boundary (EachMode fixup)&#45;&gt;[root] output.fqdn&#45;ec2</title>
<path fill="none" stroke="black" d="M319.351,-217.643C274.912,-208.117 216.956,-195.238 157.311,-180.269"/>
<polygon fill="black" stroke="black" points="157.889,-176.805 147.336,-177.75 156.175,-183.592 157.889,-176.805"/>
</g>
<!-- [root] meta.count&#45;boundary (EachMode fixup)&#45;&gt;[root] output.privateIP -->
<g id="edge10" class="edge"><title>[root] meta.count&#45;boundary (EachMode fixup)&#45;&gt;[root] output.privateIP</title>
<path fill="none" stroke="black" d="M351.29,-216.411C326.756,-206.653 295.51,-194.226 269.333,-183.814"/>
<polygon fill="black" stroke="black" points="270.526,-180.522 259.94,-180.078 267.939,-187.026 270.526,-180.522"/>
</g>
<!-- [root] meta.count&#45;boundary (EachMode fixup)&#45;&gt;[root] output.publicIP -->
<g id="edge11" class="edge"><title>[root] meta.count&#45;boundary (EachMode fixup)&#45;&gt;[root] output.publicIP</title>
<path fill="none" stroke="black" d="M379.157,-215.697C372.511,-207.389 364.422,-197.277 357.113,-188.141"/>
<polygon fill="black" stroke="black" points="359.664,-185.727 350.683,-180.104 354.197,-190.099 359.664,-185.727"/>
</g>
<!-- [root] provider[&quot;registry.terraform.io/hashicorp/aws&quot;] (close) -->
<g id="node12" class="node"><title>[root] provider[&quot;registry.terraform.io/hashicorp/aws&quot;] (close)</title>
<ellipse fill="none" stroke="black" cx="777" cy="-162" rx="225.295" ry="18"/>
<text text-anchor="middle" x="777" y="-158.3" font-family="Times,serif" font-size="14.00">[root] provider[&quot;registry.terraform.io/hashicorp/aws&quot;] (close)</text>
</g>
<!-- [root] provider[&quot;registry.terraform.io/hashicorp/aws&quot;] (close)&#45;&gt;[root] aws_instance.myec2 (expand) -->
<g id="edge16" class="edge"><title>[root] provider[&quot;registry.terraform.io/hashicorp/aws&quot;] (close)&#45;&gt;[root] aws_instance.myec2 (expand)</title>
<path fill="none" stroke="black" d="M680.712,-145.681C599.308,-132.731 484.422,-114.453 410.319,-102.664"/>
<polygon fill="black" stroke="black" points="410.567,-99.1599 400.141,-101.045 409.467,-106.073 410.567,-99.1599"/>
</g>
<!-- [root] provider[&quot;registry.terraform.io/hashicorp/aws&quot;] (close)&#45;&gt;[root] aws_security_group.web&#45;ec2&#45;security&#45;group (expand) -->
<g id="edge17" class="edge"><title>[root] provider[&quot;registry.terraform.io/hashicorp/aws&quot;] (close)&#45;&gt;[root] aws_security_group.web&#45;ec2&#45;security&#45;group (expand)</title>
<path fill="none" stroke="black" d="M735.323,-144.233C711.252,-134.55 680.76,-122.283 655.114,-111.965"/>
<polygon fill="black" stroke="black" points="656.13,-108.601 645.546,-108.116 653.517,-115.096 656.13,-108.601"/>
</g>
<!-- [root] root -->
<g id="node13" class="node"><title>[root] root</title>
<ellipse fill="none" stroke="black" cx="554" cy="-306" rx="47.169" ry="18"/>
<text text-anchor="middle" x="554" y="-302.3" font-family="Times,serif" font-size="14.00">[root] root</text>
</g>
<!-- [root] root&#45;&gt;[root] meta.count&#45;boundary (EachMode fixup) -->
<g id="edge18" class="edge"><title>[root] root&#45;&gt;[root] meta.count&#45;boundary (EachMode fixup)</title>
<path fill="none" stroke="black" d="M524.094,-291.998C500.667,-281.812 467.624,-267.445 440.575,-255.685"/>
<polygon fill="black" stroke="black" points="441.849,-252.422 431.282,-251.644 439.057,-258.842 441.849,-252.422"/>
</g>
<!-- [root] root&#45;&gt;[root] provider[&quot;registry.terraform.io/hashicorp/aws&quot;] (close) -->
<g id="edge19" class="edge"><title>[root] root&#45;&gt;[root] provider[&quot;registry.terraform.io/hashicorp/aws&quot;] (close)</title>
<path fill="none" stroke="black" d="M577.443,-290.072C616.734,-265.053 696.075,-214.53 741.996,-185.29"/>
<polygon fill="black" stroke="black" points="743.883,-188.237 750.438,-179.914 740.123,-182.333 743.883,-188.237"/>
</g>
</g>
</svg>
